<?xml version="1.0" encoding="UTF-8" standalone="no"?>
<!DOCTYPE svg PUBLIC "-//W3C//DTD SVG 1.1//EN" "http://www.w3.org/Graphics/SVG/1.1/DTD/svg11.dtd">
<svg xmlns="http://www.w3.org/2000/svg">
<metadata/>
<defs>
<font id="CaracteresL1Regular" horiz-adv-x="1024">
<font-face units-per-em="2048" ascent="1638" descent="-410"/>
<missing-glyph horiz-adv-x="629"/>
<glyph horiz-adv-x="0"/>
<glyph horiz-adv-x="2048"/>
<glyph unicode="" horiz-adv-x="569"/>
<glyph unicode=" " horiz-adv-x="629"/>
<glyph unicode="	" horiz-adv-x="629"/>
<glyph unicode=" " horiz-adv-x="629"/>
<glyph unicode="!" horiz-adv-x="485" d="M97 150q0 31 12 62q26 62 86 85q29 11 57 11q100 0 142 -96q13 -31 13 -62t-13 -62q-27 -62 -86 -87q-29 -12 -58 -12t-58 12q-57 25 -83 87q-12 31 -12 62zM107 507v962h284v-962h-284z"/>
<glyph unicode="&quot;" d="M129 0v1464h768v-1464h-768zM256 104h512v1258h-512v-1258z"/>
<glyph unicode="#" d="M129 0v1464h768v-1464h-768zM256 104h512v1258h-512v-1258z"/>
<glyph unicode="$" horiz-adv-x="866" d="M110 1064h131l-1 167l254 66v-237h191v-238h-191v-523q9 -80 97 -81q60 3 113 37l72 -210q-89 -47 -211 -53h-4q-144 0 -227 73t-95 239v518h-128z"/>
<glyph unicode="%" horiz-adv-x="2645" d="M119 1469h262v-787l291 355h323l-302 -379l402 -657h-293l-272 464l-147 -187v-277l-262 -2zM1140 1l2 1038h247v-68q70 64 206 77q147 2 198 -47q60 -30 98 -107q93 154 253 154h87q145 -18 211 -103q83 -93 106 -255v-689h-249v651q-30 149 -157 149q-151 4 -172 -168 v-632h-249v628q-17 178 -166 174q-138 -4 -155 -172l-3 -630h-257z"/>
<glyph unicode="&amp;" horiz-adv-x="1642" d="M121 1l2 1038h247v-68q70 64 206 77h11q138 0 187 -47q60 -30 98 -107q93 154 253 154h87q145 -18 211 -103q83 -93 106 -255v-689h-249v651q-30 149 -157 149q-151 4 -172 -168v-632h-249v628q-17 178 -166 174q-138 -4 -155 -172l-3 -630h-257z"/>
<glyph unicode="'" horiz-adv-x="521" d="M16 1156l99 313h333l-95 -313h-337z"/>
<glyph unicode="(" horiz-adv-x="659" d="M72 708.5q0 454.5 291 878.5h248q-266 -417 -266 -878q0 -460 266 -879h-248q-291 424 -291 878.5z"/>
<glyph unicode=")" horiz-adv-x="712" d="M72 -170q266 419 266 879q0 461 -266 878h248q291 -424 291 -878.5t-291 -878.5h-248z"/>
<glyph unicode="*" d="M129 0v1464h768v-1464h-768zM256 104h512v1258h-512v-1258z"/>
<glyph unicode="+" horiz-adv-x="1127" d="M104 673v178h371v381h184v-381h369v-178h-369v-383h-184v383h-371z"/>
<glyph unicode="," horiz-adv-x="432" d="M59 273h328l-90 -563h-238v563z"/>
<glyph unicode="-" horiz-adv-x="683" d="M62 534v278h528v-278h-528z"/>
<glyph unicode="." horiz-adv-x="504" d="M89 0v302h300v-302h-300z"/>
<glyph unicode="/" horiz-adv-x="1056" d="M-15 -46l809 1550h248l-801 -1550h-256z"/>
<glyph unicode="0" horiz-adv-x="1177" d="M62 726.5q0 92.5 18 221.5v7l4 9l7 69l5 10l10 56l4 6q15 72 65 162l29 44l56 57q89 72 231 103q45 8 93 8h8q75 -2 157 -25q34 -4 109 -45q77 -48 140 -131l32 -49l26 -55l11 -40l3 -3v-10q10 -21 12 -33l4 -5l17 -89l3 -2l-2 -13l4 -8l10 -107l4 -10l-3 -1l7 -63l-2 -2 q4 -10 0 -12l3 -10l-2 -3l5 -68l-2 -2l3 -29l-1 -2v-40q-1 -37 -6 -89l-5 -37l2 -2l-5 -10q-4 -46 -23 -107l-1 -11l-26 -74l-5 -4q0 -10 -26 -61l-48 -69q-79 -91 -158.5 -124.5t-143.5 -41.5l-77 -5l-18 1q-228 6 -368 148q-69 77 -104 179q-40 104 -49 219l-4 44 q-3 56 -3 148.5zM365 581l16 -109l21 -77q23 -60 61 -85t100 -34q62 -4 77 2l1 -2l55 12q66 22 101 95q27 73 40 174l5 226l-3 106l-10 79l-4 4l-13 56l-4 2q-15 60 -57 111q-32 26 -51 34l-58 14l-61 3q-41 1 -91 -17q-46 -22 -77 -79q-22 -53 -40 -133l2 -6q-6 -5 -7 -33 q-14 -117 -3 -343z"/>
<glyph unicode="1" horiz-adv-x="1177" d="M289 889v310l62 29q155 99 223 241h285v-1469h-279l1 1037h-4q-3 -13 -72 -57l-87 -46l-78 -30q-47 -10 -51 -15z"/>
<glyph unicode="2" horiz-adv-x="1177" d="M105 0l1 289l615 621q29 35 41 64q31 101 -29 170q-55 53 -155 53l-59 -8l-27 -13l-17 -1l-37 -29l-21 -25q-20 -36 -27 -56l-6 -35q-4 -11 -5 -8l-270 -1l-2 7l2 49l4 6q4 63 41 141l46 77l37 41l6 2q146 131 374 131q46 0 83 -7q99 -16 219 -101q36 -29 79 -91l35 -64 l13 -31l-3 -3q25 -68 25 -130q-6 -120 -27.5 -173.5t-42.5 -84.5l-23 -33l-51 -56l-417 -415h583v-286h-985z"/>
<glyph unicode="3" horiz-adv-x="1180" d="M108 347l263 72q19 -75 95 -114q47 -19 139 -21l47 5l38 12l29 17q30 20 54 59q12 25 16 64t-2 44q2 16 -14 49l-25 35q-27 27 -49.5 39t-64.5 21l-109 3v271q22 -2 87 6l2 -2q119 14 150 130l-2 45l2 7l-4 14l-19 37q-28 35 -51 46q-4 3 -68 18l-63 -2v2l-62 -10 l-44 -19l-18 -14l-20 -29l-15 -37l-260 78l17 45l6 6q-2 5 23 50l28 45l40 46q22 12 22 18l21 15q78 58 156 70t141 12t131 -12.5t142 -61.5l68 -58q45 -54 58 -76l31 -62q26 -76 28 -155l-5 -76l-17 -56q-29 -72 -90 -146l5 -13l48 -53l31 -47l28 -70q23 -73 23 -143 q0 -142 -95 -270q-144 -173 -373 -181q-83 0 -137 10q-70 19 -99 32l-60 30l-51 37l-46 41l-47 61q-54 88 -59 136z"/>
<glyph unicode="4" horiz-adv-x="1179" d="M84 299v307l603 863h284v-881h145v-290h-146v-294h-292v295h-594zM408 590h280v405z"/>
<glyph unicode="5" horiz-adv-x="1177" d="M120 368l288 73q13 -59 68 -106q83 -61 234 -25q125 51 117 178q3 115 -104 163q-74 22 -167 12q-71 -15 -127 -55l-249 195l74 667h770l-1 -281h-494l-34 -250q70 20 148 17q73 2 149 -16q110 -35 196 -123q119 -130 135 -288q1 -23 1 -82t-25 -129q-46 -107 -126 -192 q-132 -124 -322 -124h-20l-92 6q-144 16 -250 101q-137 126 -169 259z"/>
<glyph unicode="6" horiz-adv-x="1179" d="M96 705q0 219 38 377q51 208 205 311q120 81 287 81q48 0 98 -7q301 -45 387 -339l-279 -77q-40 110 -147 124q-184 23 -240 -86q-37 -60 -58 -300q210 146 455 54q195 -85 250 -278q11 -58 11 -112q0 -161 -98 -284q-133 -166 -398 -166q-471 0 -507 560q-4 74 -4 142z M408 449q2 -162 173 -179q211 -9 240 146q8 168 -174 189q-214 8 -239 -156z"/>
<glyph unicode="7" horiz-adv-x="1179" d="M144 1171v299h922v-308q-217 -214 -368 -619q-93 -291 -86 -543h-302q-2 588 395 1171h-561z"/>
<glyph unicode="8" horiz-adv-x="1182" d="M120 449.5q0 183.5 134 315.5q-112 152 -112 259q1 192 104 308q108 115 228 138q63 12 123.5 12t120.5 -10q149 -29 251 -160t84 -322q-27 -131 -108 -219q134 -155 134 -326q0 -99 -46 -203q-142 -245 -419 -257q-229 3 -363 139q-131 142 -131 325.5zM391 468 q-6 -181 196 -206q191 5 222 163q4 180 -183 211q-199 10 -235 -168zM417 1066q4 -134 155 -163q181 -7 211 145q-11 145 -168 153q-182 0 -198 -135z"/>
<glyph unicode="9" horiz-adv-x="1183" d="M85 346l278 74l16 -30q48 -103 204 -103q137 7 183 114q24 47 49 284q-209 -145 -443 -62q-221 93 -269 285q-9 56 -9 108q0 172 103 300q113 131 286 153h3v-2q57 6 108 6q168 0 284 -75t164 -199q64 -168 64 -432q0 -343 -98 -533q-134 -210 -360 -238q-19 -1 -36 -1 q-436 0 -527 351zM377 1057q-5 -171 176 -190q213 -8 239 157q-3 160 -173 180q-214 18 -242 -147z"/>
<glyph unicode=":" horiz-adv-x="517" d="M90 0v311h332v-311h-332zM90 597v311h332v-311h-332z"/>
<glyph unicode=";" horiz-adv-x="515" d="M99 555v340l298 -1v-340zM100 273h317l-87 -562h-230v562z"/>
<glyph unicode="&lt;" horiz-adv-x="6124" d="M74 773v28q0 360 251 698q295 307 755 339h1421l1 -260h-1422q-373 -14 -577.5 -280.5t-183.5 -580.5q-27 -316 167 -571.5t594 -282.5h1421v-244h-1421q-495 27 -750 336t-255 729v33q-1 28 -1 56zM895 52l207 1289h148v-1289h-355zM1339 52v1289h148l69 -457 q77 135 229 198l-135 152q-60 83 27 105h760l-394 -678q-76 -92 -106 50l-54 177q-140 -121 -189 -301.5t-28 -339.5l28 -195h-355zM2454 1578l1 260h2531q460 -32 755 -339q261 -351 261 -716q0 -28 -1 -56q0 -451 -260 -766t-755 -342h-2531v244h2531q400 27 594 282.5 t177 581.5q11 304 -193.5 570.5t-577.5 280.5h-2532z"/>
<glyph unicode="=" horiz-adv-x="1168" d="M144 492v173h899v-173h-899zM144 828v173h899v-173h-899z"/>
<glyph unicode="&gt;" horiz-adv-x="1694" d="M77 52l207 1289h148v-1289h-355zM521 52v1289h148l69 -457q77 135 229 198l-135 152q-60 83 27 105h760l-394 -678q-76 -92 -106 50l-54 177q-140 -121 -189 -301.5t-28 -339.5l28 -195h-355z"/>
<glyph unicode="?" horiz-adv-x="1071" d="M14 804q0 6 55.5 21.5t85.5 27.5q40 -50 124 -60q96 -2 127 31q14 10 19.5 37.5t-1.5 47.5q-9 13 -18 21l-19 13l-21 8q-176 51 -193 60q-151 54 -146 213q10 81 73 130q73 47 150 52h11q56 0 111.5 -13.5t97 -46t68.5 -86.5l-2 -4l-114 -52l-7 3q-10 31 -62 50.5 t-125 1.5q-33 -11 -41.5 -20t-16.5 -30q0 -25 5 -36q8 -17 42 -31q158 -42 210.5 -62t77.5 -45l31 -38q35 -53 37 -116q2 -21 -6 -62q-15 -48 -41 -78.5t-41 -37.5q-81 -51 -169 -56h-51q-56 6 -107 27q-104 44 -144 130zM224 245l724 1058h122l-714 -1058h-132z"/>
<glyph unicode="@" d="M129 0v1464h768v-1464h-768zM256 104h512v1258h-512v-1258z"/>
<glyph unicode="A" horiz-adv-x="1179" d="M41 3l374 1465h357l378 -1465h-287l-63 249h-405l-64 -249h-290zM450 531h289l-140 572z"/>
<glyph unicode="B" horiz-adv-x="1091" d="M70 0v1466h527q226 -24 329 -203q58 -111 58 -233q0 -49 -9 -99q-36 -105 -119 -171q172 -126 172 -361q0 -63 -29 -132q-90 -232 -397 -267h-532zM340 254l249 1q108 27 137 131q1 17 1 33q0 151 -140 179h-247v-344zM342 897h205q158 1 161 148v9q0 144 -152 147h-214 v-304z"/>
<glyph unicode="C" horiz-adv-x="1088" d="M57 724q2 344 148 563q92 121 192 161t201 40q33 0 68 -4q291 -50 381 -347l9 -49l-253 -53q-31 128 -106 170q-34 19 -74 19q-47 0 -102 -27q-145 -123 -170 -424q-1 -18 -1 -36q0 -157 48 -277q52 -132 128 -175q44 -25 89 -25q32 0 66 13q79 20 126 163l253 -78 q-51 -201 -197 -291q-107 -68 -252 -77q-273 6 -408 223q-142 236 -146 511z"/>
<glyph unicode="D" horiz-adv-x="1143" d="M58 2l1 1469h614q144 -17 244.5 -115t145.5 -232q21 -59 31 -155v-450q-15 -228 -143.5 -368t-312.5 -149h-580zM345 291h234q71 11 121 52.5t85 145.5q13 45 13 257q0 89 -2 209q-47 208 -217 239h-234v-903z"/>
<glyph unicode="E" horiz-adv-x="1028" d="M64 0l1 1465h887v-268h-606v-320h444v-271h-444v-335h632v-271h-914z"/>
<glyph unicode="F" horiz-adv-x="999" d="M70 2l1 1466h888v-268h-606v-320h444v-272h-444l-1 -606h-282z"/>
<glyph unicode="G" horiz-adv-x="1155" d="M56 716q0 351 159 588q94 120 191.5 151.5t156 31.5t82.5 -1q287 -30 408 -381l-260 -68q-70 154 -160 185q-24 9 -48 9q-92 0 -178 -132q-68 -112 -84 -327v-18q0 -224 75 -350q77 -131 182 -146q177 3 250 267h-237v267h522v-12q1 -24 1 -49q0 -349 -167 -566 q-112 -154 -328 -172h-22q-480 0 -542 682q-1 20 -1 41z"/>
<glyph unicode="H" horiz-adv-x="1104" d="M76 0v1466h281v-587h403v586h281v-1465h-281v606h-403v-606h-281z"/>
<glyph unicode="I" horiz-adv-x="466" d="M97 0v1466h278v-1466h-278z"/>
<glyph unicode="J" horiz-adv-x="1031" d="M33 460v65h266v-65q19 -206 176 -206q12 0 26 1q144 18 160 210v998h280l-1 -996q-5 -265 -194 -406q-114 -81 -256 -81q-187 0 -312 126q-129 136 -145 354z"/>
<glyph unicode="K" horiz-adv-x="1152" d="M77 0v1468h284v-493l353 493h310l-372 -547l459 -921h-310l-330 670l-92 -125v-545h-302z"/>
<glyph unicode="L" horiz-adv-x="968" d="M76 0v1468h277l1 -1206h567l-1 -262h-844z"/>
<glyph unicode="M" horiz-adv-x="1530" d="M96 0v1468h377l295 -777l302 777h376v-1468h-279v927l-365 -927h-73l-362 919l3 -919h-274z"/>
<glyph unicode="N" horiz-adv-x="1149" d="M82 -1v1469h349l368 -782v782h272l1 -1468h-267l-447 925l-1 -926h-275z"/>
<glyph unicode="O" horiz-adv-x="1185" d="M67 718q0 353 157 584q105 126 219 161q79 25 136 25t91 -4q242 -37 358 -286q99 -184 99 -452v-18q0 -335 -163 -570q-131 -179 -361 -179t-379 186q-154 248 -156 509q-1 22 -1 44zM333 771v-11q0 -245 91 -401q74 -112 169 -124q116 6 196 159q58 102 73 300v16 q0 241 -89 397q-75 112 -166 125q-120 -6 -200 -157q-57 -106 -74 -304z"/>
<glyph unicode="P" horiz-adv-x="1104" d="M73 3v1465h560q128 -14 226.5 -92t141.5 -176q54 -105 54 -225q0 -194 -53.5 -294.5t-111.5 -149.5q-126 -115 -265 -117h-278v-411h-274zM351 706h226q170 20 196 217v13q0 113 -50 174q-53 64 -141 73h-231v-477z"/>
<glyph unicode="Q" horiz-adv-x="1185" d="M67 718q0 353 157 584q105 126 219 161q79 25 136 25t91 -4q242 -37 358 -286q99 -184 99 -452v-18q0 -335 -163 -570q-131 -179 -361 -179t-379 186q-154 248 -156 509q-1 22 -1 44zM333 771v-11q0 -244 91 -401q74 -112 169 -124q116 6 196 159q58 102 73 300v16 q0 241 -89 397q-75 112 -166 125q-120 -6 -200 -157q-57 -106 -74 -304zM499 196h354l163 -303h-324z"/>
<glyph unicode="R" horiz-adv-x="1072" d="M61 -2l1 1473h490q231 0 361 -166q114 -146 114 -329q0 -280 -227 -447l244 -528h-316l-209 437h-181v-440h-277zM341 720h171l82 10q70 19 117 79q40 59 48 141v13q0 94 -55 158q-59 69 -162 77h-201v-478z"/>
<glyph unicode="S" horiz-adv-x="1102" d="M53 299v2q0 11 23 15q177 57 230 82q27 -37 71 -67q71 -42 152 -51h39q52 0 68 4q99 28 122 57q23 20 40 97q1 8 1 15q0 24 -9 52q-15 25 -32 42l-34 26l-38 17q-317 99 -349 116q-147 59 -219 195q-42 82 -42 196v25q19 162 133 257q128 93 267 101h26q99 0 164 -15 q132 -37 206 -103q74 -61 122 -166l-3 -11l-206 -99l-10 5q-19 61 -107 99q-51 19 -111 19q-57 0 -121 -17q-57 -19 -80 -49q-8 -8 -21 -50q-2 -49 4 -57q13 -34 52 -61l26 -11q284 -84 385 -122q87 -40 133 -88l56 -76q67 -111 67 -244q0 -39 -12 -105q-25 -93 -72.5 -152 t-74.5 -74q-147 -101 -303 -109h-91q-102 10 -172 40q-112 52 -175 110t-105 155z"/>
<glyph unicode="T" horiz-adv-x="998" d="M73 1188v279h878v-282h-293v-1185h-272v1188h-313z"/>
<glyph unicode="U" horiz-adv-x="1153" d="M85 411v1053h286v-992q19 -190 214 -212q192 21 216 209v995h283v-1069q-37 -196 -185 -305q-132 -93 -270 -98q-22 -2 -43 -2q-205 0 -339 119q-153 148 -162 302z"/>
<glyph unicode="V" horiz-adv-x="1199" d="M45 1467h282l297 -1054l255 1054h285l-355 -1466h-371z"/>
<glyph unicode="W" horiz-adv-x="1704" d="M33 1470h293l194 -846l214 845h260l195 -835l210 835h284l-362 -1469h-291l-180 752l-191 -752h-291z"/>
<glyph unicode="X" horiz-adv-x="1306" d="M47 2l452 738l-451 727h352l271 -452l271 450h323l-449 -726l453 -737h-322l-280 447l-265 -446z"/>
<glyph unicode="Y" horiz-adv-x="1168" d="M40 1467h293l263 -556l253 556h287l-411 -881v-586h-273v581z"/>
<glyph unicode="Z" horiz-adv-x="1106" d="M56 0v294l615 887h-584v283h943l-1 -283l-630 -906h648v-275h-991z"/>
<glyph unicode="[" d="M129 0v1464h768v-1464h-768zM256 104h512v1258h-512v-1258z"/>
<glyph unicode="\" horiz-adv-x="1045" d="M-15 1520h251l817 -1566h-259z"/>
<glyph unicode="]" d="M129 0v1464h768v-1464h-768zM256 104h512v1258h-512v-1258z"/>
<glyph unicode="^" d="M129 0v1464h768v-1464h-768zM256 104h512v1258h-512v-1258z"/>
<glyph unicode="_" d="M129 0v1464h768v-1464h-768zM256 104h512v1258h-512v-1258z"/>
<glyph unicode="`" d="M129 0v1464h768v-1464h-768zM256 104h512v1258h-512v-1258z"/>
<glyph unicode="a" horiz-adv-x="1179" d="M41 3l374 1465h357l378 -1465h-287l-63 249h-405l-64 -249h-290zM450 531h289l-140 572z"/>
<glyph unicode="b" horiz-adv-x="1091" d="M70 0v1466h527q226 -24 329 -203q58 -111 58 -233q0 -49 -9 -99q-36 -105 -119 -171q172 -126 172 -361q0 -63 -29 -132q-90 -232 -397 -267h-532zM340 254l249 1q108 27 137 131q1 17 1 33q0 151 -140 179h-247v-344zM342 897h205q158 1 161 148v9q0 144 -152 147h-214 v-304z"/>
<glyph unicode="c" horiz-adv-x="1088" d="M57 724q2 344 148 563q92 121 192 161t201 40q33 0 68 -4q291 -50 381 -347l9 -49l-253 -53q-31 128 -106 170q-34 19 -74 19q-47 0 -102 -27q-145 -123 -170 -424q-1 -18 -1 -36q0 -157 48 -277q52 -132 128 -175q44 -25 89 -25q32 0 66 13q79 20 126 163l253 -78 q-51 -201 -197 -291q-107 -68 -252 -77q-273 6 -408 223q-142 236 -146 511z"/>
<glyph unicode="d" horiz-adv-x="1143" d="M58 2l1 1469h614q144 -17 244.5 -115t145.5 -232q21 -59 31 -155v-450q-15 -228 -143.5 -368t-312.5 -149h-580zM345 291h234q71 11 121 52.5t85 145.5q13 45 13 257q0 89 -2 209q-47 208 -217 239h-234v-903z"/>
<glyph unicode="e" horiz-adv-x="1028" d="M64 0l1 1465h887v-268h-606v-320h444v-271h-444v-335h632v-271h-914z"/>
<glyph unicode="f" horiz-adv-x="999" d="M70 2l1 1466h888v-268h-606v-320h444v-272h-444l-1 -606h-282z"/>
<glyph unicode="g" horiz-adv-x="1155" d="M56 716q0 351 159 588q94 120 191.5 151.5t156 31.5t82.5 -1q287 -30 408 -381l-260 -68q-70 154 -160 185q-24 9 -48 9q-92 0 -178 -132q-68 -112 -84 -327v-18q0 -224 75 -360q77 -142 182 -157q168 8 250 300h-237v267h522v-12q1 -24 1 -49q0 -361 -167 -588 q-112 -154 -328 -172h-22q-480 0 -542 692q-1 20 -1 41z"/>
<glyph unicode="h" horiz-adv-x="1104" d="M76 0v1466h281v-587h403v586h281v-1465h-281v606h-403v-606h-281z"/>
<glyph unicode="i" horiz-adv-x="466" d="M97 0v1466h278v-1466h-278z"/>
<glyph unicode="j" horiz-adv-x="1031" d="M33 460v65h266v-65q19 -206 176 -206q12 0 26 1q144 18 160 210v998h280l-1 -996q-5 -265 -194 -406q-114 -81 -256 -81q-187 0 -312 126q-129 136 -145 354z"/>
<glyph unicode="k" horiz-adv-x="1152" d="M77 0v1468h284v-493l353 493h310l-372 -547l459 -921h-310l-330 670l-92 -125v-545h-302z"/>
<glyph unicode="l" horiz-adv-x="968" d="M76 0v1468h277l1 -1206h567l-1 -262h-844z"/>
<glyph unicode="m" horiz-adv-x="1530" d="M96 0v1468h377l295 -777l302 777h376v-1468h-279v927l-365 -927h-73l-362 919l3 -919h-274z"/>
<glyph unicode="n" horiz-adv-x="1149" d="M82 -1v1469h349l368 -782v782h272l1 -1468h-267l-447 925l-1 -926h-275z"/>
<glyph unicode="o" horiz-adv-x="1185" d="M67 718q0 353 157 584q105 126 219 161q79 25 136 25t91 -4q242 -37 358 -286q99 -184 99 -452v-18q0 -335 -163 -570q-131 -179 -361 -179t-379 186q-154 248 -156 509q-1 22 -1 44zM333 771v-11q0 -245 91 -401q74 -112 169 -124q116 6 196 159q58 102 73 300v16 q0 241 -89 397q-75 112 -166 125q-120 -6 -200 -157q-57 -106 -74 -304z"/>
<glyph unicode="p" horiz-adv-x="1104" d="M73 3v1465h560q128 -14 226.5 -92t141.5 -176q54 -105 54 -225q0 -194 -53.5 -294.5t-111.5 -149.5q-126 -115 -265 -117h-278v-411h-274zM351 706h226q170 20 196 217v13q0 113 -50 174q-53 64 -141 73h-231v-477z"/>
<glyph unicode="q" horiz-adv-x="1185" d="M67 718q0 353 157 584q105 126 219 161q79 25 136 25t91 -4q242 -37 358 -286q99 -184 99 -452v-18q0 -335 -163 -570q-131 -179 -361 -179t-379 186q-154 248 -156 509q-1 22 -1 44zM333 771v-11q0 -244 91 -401q74 -112 169 -124q116 6 196 159q58 102 73 300v16 q0 241 -89 397q-75 112 -166 125q-120 -6 -200 -157q-57 -106 -74 -304zM499 196h354l163 -303h-324z"/>
<glyph unicode="r" horiz-adv-x="1072" d="M61 -2l1 1473h490q231 0 361 -166q114 -146 114 -329q0 -280 -227 -447l244 -528h-316l-209 437h-181v-440h-277zM341 720h171l82 10q70 19 117 79q40 59 48 141v13q0 94 -55 158q-59 69 -162 77h-201v-478z"/>
<glyph unicode="s" horiz-adv-x="1102" d="M53 299v2q0 11 23 15q177 57 230 82q27 -37 71 -67q71 -42 152 -51h39q52 0 68 4q99 28 122 57q23 20 40 97q1 8 1 15q0 24 -9 52q-15 25 -32 42l-34 26l-38 17q-317 99 -349 116q-147 59 -219 195q-42 82 -42 196v25q19 162 133 257q128 93 267 101h26q99 0 164 -15 q132 -37 206 -103q74 -61 122 -166l-3 -11l-206 -99l-10 5q-19 61 -107 99q-51 19 -111 19q-57 0 -121 -17q-57 -19 -80 -49q-8 -8 -21 -50q-2 -49 4 -57q13 -34 52 -61l26 -11q284 -84 385 -122q87 -40 133 -88l56 -76q67 -111 67 -244q0 -39 -12 -105q-25 -93 -72.5 -152 t-74.5 -74q-147 -101 -303 -109h-91q-102 10 -172 40q-112 52 -175 110t-105 155z"/>
<glyph unicode="t" horiz-adv-x="998" d="M73 1188v279h878v-282h-293v-1185h-272v1188h-313z"/>
<glyph unicode="u" horiz-adv-x="1153" d="M85 411v1053h286v-992q19 -190 214 -212q192 21 216 209v995h283v-1069q-37 -196 -185 -305q-132 -93 -270 -98q-22 -2 -43 -2q-205 0 -339 119q-153 148 -162 302z"/>
<glyph unicode="v" horiz-adv-x="1199" d="M45 1467h282l297 -1054l255 1054h285l-355 -1466h-371z"/>
<glyph unicode="w" horiz-adv-x="1704" d="M33 1470h293l194 -846l214 845h260l195 -835l210 835h284l-362 -1469h-291l-180 752l-191 -752h-291z"/>
<glyph unicode="x" horiz-adv-x="1306" d="M47 2l452 738l-451 727h352l271 -452l271 450h323l-449 -726l453 -737h-322l-280 447l-265 -446z"/>
<glyph unicode="y" horiz-adv-x="1168" d="M40 1467h293l263 -556l253 556h287l-411 -881v-586h-273v581z"/>
<glyph unicode="z" horiz-adv-x="1106" d="M56 0v294l615 887h-584v283h943l-1 -283l-630 -906h648v-275h-991z"/>
<glyph unicode="{" d="M129 0v1464h768v-1464h-768zM256 104h512v1258h-512v-1258z"/>
<glyph unicode="|" d="M129 0v1464h768v-1464h-768zM256 104h512v1258h-512v-1258z"/>
<glyph unicode="}" d="M129 0v1464h768v-1464h-768zM256 104h512v1258h-512v-1258z"/>
<glyph unicode="~" d="M129 0v1464h768v-1464h-768zM256 104h512v1258h-512v-1258z"/>
<glyph unicode="¡" d="M129 0v1464h768v-1464h-768zM256 104h512v1258h-512v-1258z"/>
<glyph unicode="¢" d="M129 0v1464h768v-1464h-768zM256 104h512v1258h-512v-1258z"/>
<glyph unicode="£" d="M129 0v1464h768v-1464h-768zM256 104h512v1258h-512v-1258z"/>
<glyph unicode="¥" d="M129 0v1464h768v-1464h-768zM256 104h512v1258h-512v-1258z"/>
<glyph unicode="¦" d="M129 0v1464h768v-1464h-768zM256 104h512v1258h-512v-1258z"/>
<glyph unicode="§" d="M129 0v1464h768v-1464h-768zM256 104h512v1258h-512v-1258z"/>
<glyph unicode="¨" d="M129 0v1464h768v-1464h-768zM256 104h512v1258h-512v-1258z"/>
<glyph unicode="©" d="M129 0v1464h768v-1464h-768zM256 104h512v1258h-512v-1258z"/>
<glyph unicode="ª" d="M129 0v1464h768v-1464h-768zM256 104h512v1258h-512v-1258z"/>
<glyph unicode="«" d="M129 0v1464h768v-1464h-768zM256 104h512v1258h-512v-1258z"/>
<glyph unicode="¬" d="M129 0v1464h768v-1464h-768zM256 104h512v1258h-512v-1258z"/>
<glyph unicode="­" horiz-adv-x="683" d="M62 534v278h528v-278h-528z"/>
<glyph unicode="®" d="M129 0v1464h768v-1464h-768zM256 104h512v1258h-512v-1258z"/>
<glyph unicode="¯" d="M129 0v1464h768v-1464h-768zM256 104h512v1258h-512v-1258z"/>
<glyph unicode="°" d="M129 0v1464h768v-1464h-768zM256 104h512v1258h-512v-1258z"/>
<glyph unicode="±" d="M129 0v1464h768v-1464h-768zM256 104h512v1258h-512v-1258z"/>
<glyph unicode="²" d="M129 0v1464h768v-1464h-768zM256 104h512v1258h-512v-1258z"/>
<glyph unicode="³" d="M129 0v1464h768v-1464h-768zM256 104h512v1258h-512v-1258z"/>
<glyph unicode="´" d="M129 0v1464h768v-1464h-768zM256 104h512v1258h-512v-1258z"/>
<glyph unicode="µ" d="M129 0v1464h768v-1464h-768zM256 104h512v1258h-512v-1258z"/>
<glyph unicode="¶" horiz-adv-x="765" d="M75 1099q0 187 60 292.5t166 105.5h373v-1804h-113v1693h-117v-1693h-113v998q-256 0 -256 408z"/>
<glyph unicode="¹" d="M129 0v1464h768v-1464h-768zM256 104h512v1258h-512v-1258z"/>
<glyph unicode="º" d="M129 0v1464h768v-1464h-768zM256 104h512v1258h-512v-1258z"/>
<glyph unicode="»" d="M129 0v1464h768v-1464h-768zM256 104h512v1258h-512v-1258z"/>
<glyph unicode="¼" d="M129 0v1464h768v-1464h-768zM256 104h512v1258h-512v-1258z"/>
<glyph unicode="½" d="M129 0v1464h768v-1464h-768zM256 104h512v1258h-512v-1258z"/>
<glyph unicode="¾" d="M129 0v1464h768v-1464h-768zM256 104h512v1258h-512v-1258z"/>
<glyph unicode="¿" d="M129 0v1464h768v-1464h-768zM256 104h512v1258h-512v-1258z"/>
<glyph unicode="À" horiz-adv-x="1179" d="M41 3l374 1465h357l378 -1465h-287l-63 249h-405l-64 -249h-290zM332 1832h358l135 -304h-328zM450 531h289l-140 572z"/>
<glyph unicode="Á" horiz-adv-x="1179" d="M41 3l374 1465h357l378 -1465h-287l-63 249h-405l-64 -249h-290zM378 1528l134 304h356l-164 -304h-326zM450 531h289l-140 572z"/>
<glyph unicode="Â" horiz-adv-x="1179" d="M41 3l374 1465h357l378 -1465h-287l-63 249h-405l-64 -249h-290zM224 1528l131 304h338l-151 -304h-318zM450 531h289l-140 572zM503 1832h336l131 -304h-318z"/>
<glyph unicode="Ã" d="M129 0v1464h768v-1464h-768zM256 104h512v1258h-512v-1258z"/>
<glyph unicode="Ä" horiz-adv-x="1179" d="M41 3l374 1465h357l378 -1465h-287l-63 249h-405l-64 -249h-290zM308.5 1627.5q-22.5 53.5 0 107t73.5 73.5q25 10 50 10q86 0 122 -84q23 -53 0 -106.5t-74 -75t-100 0t-71.5 75zM450 531h289l-140 572zM643 1627.5q-23 53.5 0 106.5q36 84 123 84t123 -84 q23 -53 0 -106.5t-74.5 -75t-100 0t-71.5 75z"/>
<glyph unicode="Å" d="M129 0v1464h768v-1464h-768zM256 104h512v1258h-512v-1258z"/>
<glyph unicode="Æ" d="M129 0v1464h768v-1464h-768zM256 104h512v1258h-512v-1258z"/>
<glyph unicode="Ç" horiz-adv-x="1088" d="M57 724q2 344 148 563q92 121 192 161t201 40q33 0 68 -4q291 -50 381 -347l9 -49l-253 -53q-31 128 -106 170t-176 -8q-145 -123 -170 -424q-6 -180 47 -312.5t128.5 -175.5t154.5 -12q79 20 126 163l253 -78q-51 -201 -197 -291q-107 -68 -252 -77q-273 6 -408 223 q-142 236 -146 511zM204 -124l138 330h354l-168 -330h-324z"/>
<glyph unicode="È" horiz-adv-x="1028" d="M64 0v1465h888v-268h-606v-320h444v-271h-444v-335h632v-271h-914zM297 1832h337l127 -304h-309z"/>
<glyph unicode="É" horiz-adv-x="1028" d="M64 0v1465h888v-268h-606v-320h444v-271h-444v-335h632v-271h-914zM277 1528l127 304h337l-155 -304h-309z"/>
<glyph unicode="Ê" horiz-adv-x="1028" d="M64 0l1 1465h887v-268h-606v-320h444v-271h-444v-335h632v-271h-914zM144 1528l131 304h338l-151 -304h-318zM423 1832h336l131 -304h-318z"/>
<glyph unicode="Ë" horiz-adv-x="1028" d="M64 0l1 1465h887v-268h-606v-320h444v-271h-444v-335h632v-271h-914zM228.5 1627.5q-22.5 53.5 0 107t73.5 73.5q25 10 50 10q86 0 122 -84q23 -53 0 -106.5t-74 -75t-100 0t-71.5 75zM563 1627.5q-23 53.5 0 106.5q36 84 123 84t123 -84q23 -53 0 -106.5t-74.5 -75 t-100 0t-71.5 75z"/>
<glyph unicode="Ì" d="M129 0v1464h768v-1464h-768zM256 104h512v1258h-512v-1258z"/>
<glyph unicode="Í" d="M129 0v1464h768v-1464h-768zM256 104h512v1258h-512v-1258z"/>
<glyph unicode="Î" horiz-adv-x="739" d="M9 1528l131 304h338l-151 -304h-318zM240 0v1467h279v-1467h-279zM288 1832h336l131 -304h-318z"/>
<glyph unicode="Ï" horiz-adv-x="653" d="M32 1681q0 27 12 54q22 53 73 73q25 10 50 10q86 0 122 -84q23 -53 0 -106.5t-74 -75t-100 0t-71 75.5q-12 26 -12 53zM198 0v1464h278v-1464h-278zM378 1627.5q-23 53.5 0 106.5q36 84 123 84t123 -83q12 -27 12 -54t-12 -53q-23 -54 -74.5 -75.5t-100 0t-71.5 75z"/>
<glyph unicode="Ñ" d="M129 0v1464h768v-1464h-768zM256 104h512v1258h-512v-1258z"/>
<glyph unicode="Ò" d="M129 0v1464h768v-1464h-768zM256 104h512v1258h-512v-1258z"/>
<glyph unicode="Ó" d="M129 0v1464h768v-1464h-768zM256 104h512v1258h-512v-1258z"/>
<glyph unicode="Ô" horiz-adv-x="1178" d="M67 718q0 353 157 584q105 126 219 161q79 25 136 25t91 -4q242 -37 358 -286q99 -184 99 -452v-18q0 -335 -163 -570q-131 -179 -361 -179t-379 186q-154 248 -156 509q-1 22 -1 44zM230 1528l131 304h338l-151 -304h-318zM333 771q-2 -252 91 -412q74 -112 169 -124 q116 6 196 159q58 102 73 300q3 252 -89 413q-75 112 -166 125q-120 -6 -200 -157q-57 -106 -74 -304zM509 1832h336l131 -304h-318z"/>
<glyph unicode="Õ" d="M129 0v1464h768v-1464h-768zM256 104h512v1258h-512v-1258z"/>
<glyph unicode="Ö" horiz-adv-x="1185" d="M67 718q0 353 157 584q105 126 219 161q79 25 136 25t91 -4q242 -37 358 -286q99 -184 99 -452v-18q0 -335 -163 -570q-131 -179 -361 -179t-379 186q-154 248 -156 509q-1 22 -1 44zM308.5 1627.5q-22.5 53.5 0 107t73.5 73.5q25 10 50 10q86 0 122 -84q23 -53 0 -106.5 t-74 -75t-100 0t-71.5 75zM333 771q-2 -252 91 -412q74 -112 169 -124q116 6 196 159q58 102 73 300q3 252 -89 413q-75 112 -166 125q-120 -6 -200 -157q-57 -106 -74 -304zM643 1627.5q-23 53.5 0 106.5q36 84 123 84t123 -84q23 -53 0 -106.5t-74.5 -75t-100 0t-71.5 75z "/>
<glyph unicode="×" d="M129 0v1464h768v-1464h-768zM256 104h512v1258h-512v-1258z"/>
<glyph unicode="Ø" d="M129 0v1464h768v-1464h-768zM256 104h512v1258h-512v-1258z"/>
<glyph unicode="Ù" horiz-adv-x="1178" d="M92 416v1059h287l1 -998q19 -191 215 -213q193 21 217 210v1001h285v-1075q-37 -198 -186 -308q-133 -93 -272 -98q-21 -2 -43 -2q-206 0 -341 120q-154 149 -163 304zM332 1832h358l135 -304h-328z"/>
<glyph unicode="Ú" d="M129 0v1464h768v-1464h-768zM256 104h512v1258h-512v-1258z"/>
<glyph unicode="Û" horiz-adv-x="1179" d="M95 411v1057h287l1 -996q19 -191 214 -213q193 21 216 210v999h285v-1073q-37 -197 -186 -307q-132 -93 -271 -98q-21 -2 -43 -2q-206 0 -341 119q-153 150 -162 304zM223 1528l131 304h338l-151 -304h-318zM502 1832h336l131 -304h-318z"/>
<glyph unicode="Ü" horiz-adv-x="1200" d="M92 414v1057h286l1 -996q19 -190 214 -212q193 21 217 210v998h284v-1073q-37 -196 -186 -306q-132 -93 -271 -98q-21 -2 -42 -2q-206 0 -341 119q-153 149 -162 303zM301.5 1627.5q-22.5 53.5 0 107t73.5 73.5q25 10 50 10q86 0 122 -84q23 -53 0 -106.5t-74 -75t-100 0 t-71.5 75zM636 1627.5q-23 53.5 0 106.5q36 84 123 84t123 -84q23 -53 0 -106.5t-74.5 -75t-100 0t-71.5 75z"/>
<glyph unicode="Ý" d="M129 0v1464h768v-1464h-768zM256 104h512v1258h-512v-1258z"/>
<glyph unicode="Þ" d="M129 0v1464h768v-1464h-768zM256 104h512v1258h-512v-1258z"/>
<glyph unicode="ß" horiz-adv-x="1085" d="M10 216l725 1058h122l-714 -1058h-133zM511 206q0 5 55.5 21t84.5 28q41 -52 125 -60q96 -2 127 31q13 10 19 37.5t-1 46.5q-9 13 -18 22l-19 12l-21 9q-176 51 -194 59q-148 56 -146 213q11 82 74 130q72 48 150 53h11q56 0 112 -14q113 -29 165 -132l-2 -5l-114 -51 l-7 3q-10 31 -62.5 50t-105 5t-65.5 -30q-4 -3 -12 -24q-1 -25 3 -29q7 -17 29 -32l229 -67q48 -21 74 -46l31 -38q35 -53 37 -115v-6q0 -20 -6 -57q-15 -47 -41 -77.5t-41 -38.5q-81 -50 -169 -56h-51q-57 6 -108 27q-102 43 -143 131z"/>
<glyph unicode="à" horiz-adv-x="1179" d="M41 3l374 1465h357l378 -1465h-287l-63 249h-405l-64 -249h-290zM347 1832h347l131 -304h-318zM450 531h289l-140 572z"/>
<glyph unicode="á" horiz-adv-x="1179" d="M41 3l374 1465h357l378 -1465h-287l-63 249h-405l-64 -249h-290zM387 1528l131 304h350l-161 -304h-320zM450 531h289l-140 572z"/>
<glyph unicode="â" horiz-adv-x="1179" d="M41 3l374 1465h357l378 -1465h-287l-63 249h-405l-64 -249h-290zM224 1528l131 304h338l-151 -304h-318zM450 531h289l-140 572zM503 1832h336l131 -304h-318z"/>
<glyph unicode="ã" d="M129 0v1464h768v-1464h-768zM256 104h512v1258h-512v-1258z"/>
<glyph unicode="ä" horiz-adv-x="1179" d="M41 3l374 1465h357l378 -1465h-287l-63 249h-405l-64 -249h-290zM308.5 1627.5q-22.5 53.5 0 107t73.5 73.5q25 10 50 10q86 0 122 -84q23 -53 0 -106.5t-74 -75t-100 0t-71.5 75zM450 531h289l-140 572zM643 1627.5q-23 53.5 0 106.5q36 84 123 84t123 -84 q23 -53 0 -106.5t-74.5 -75t-100 0t-71.5 75z"/>
<glyph unicode="å" d="M129 0v1464h768v-1464h-768zM256 104h512v1258h-512v-1258z"/>
<glyph unicode="æ" d="M129 0v1464h768v-1464h-768zM256 104h512v1258h-512v-1258z"/>
<glyph unicode="ç" horiz-adv-x="1088" d="M57 724q2 344 148 563q92 121 192 161t201 40q33 0 68 -4q291 -50 381 -347l9 -49l-253 -53q-31 128 -106 170t-176 -8q-145 -123 -170 -424q-6 -180 47 -312.5t128.5 -175.5t154.5 -12q79 20 126 163l253 -78q-51 -201 -197 -291q-107 -68 -252 -77q-273 6 -408 223 q-142 236 -146 511zM204 -124l138 330h354l-168 -330h-324z"/>
<glyph unicode="è" horiz-adv-x="1028" d="M64 0v1465h888v-268h-606v-320h444v-271h-444v-335h632v-271h-914zM297 1832h352l132 -304h-322z"/>
<glyph unicode="é" horiz-adv-x="1028" d="M64 0v1465h888v-268h-606v-320h444v-271h-444v-335h632v-271h-914zM253 1528l133 304h355l-163 -304h-325z"/>
<glyph unicode="ê" horiz-adv-x="1028" d="M64 0l1 1465h887v-268h-606v-320h444v-271h-444v-335h632v-271h-914zM144 1528l131 304h338l-151 -304h-318zM423 1832h336l131 -304h-318z"/>
<glyph unicode="ë" horiz-adv-x="1028" d="M64 0l1 1465h887v-268h-606v-320h444v-271h-444v-335h632v-271h-914zM228.5 1627.5q-22.5 53.5 0 107t73.5 73.5q25 10 50 10q86 0 122 -84q23 -53 0 -106.5t-74 -75t-100 0t-71.5 75zM563 1627.5q-23 53.5 0 106.5q36 84 123 84t123 -84q23 -53 0 -106.5t-74.5 -75 t-100 0t-71.5 75z"/>
<glyph unicode="ì" d="M129 0v1812h768v-1812h-768zM256 129h512v1557h-512v-1557z"/>
<glyph unicode="í" d="M129 0v1812h768v-1812h-768zM256 129h512v1557h-512v-1557z"/>
<glyph unicode="î" horiz-adv-x="739" d="M9 1528l131 304h338l-151 -304h-318zM240 0v1467h279v-1467h-279zM288 1832h336l131 -304h-318z"/>
<glyph unicode="ï" horiz-adv-x="653" d="M32 1681q0 27 12 54q22 53 73 73q25 10 50 10q86 0 122 -84q23 -53 0 -106.5t-74 -75t-100 0t-71 75.5q-12 26 -12 53zM198 0v1464h278v-1464h-278zM378 1627.5q-23 53.5 0 106.5q36 84 123 84t123 -83q12 -27 12 -54t-12 -53q-23 -54 -74.5 -75.5t-100 0t-71.5 75z"/>
<glyph unicode="ð" d="M129 0v1464h768v-1464h-768zM256 104h512v1258h-512v-1258z"/>
<glyph unicode="ñ" d="M129 0v1464h768v-1464h-768zM256 104h512v1258h-512v-1258z"/>
<glyph unicode="ò" d="M129 0v1464h768v-1464h-768zM256 104h512v1258h-512v-1258z"/>
<glyph unicode="ó" d="M129 0v1464h768v-1464h-768zM256 104h512v1258h-512v-1258z"/>
<glyph unicode="ô" horiz-adv-x="1178" d="M67 718q0 353 157 584q105 126 219 161q79 25 136 25t91 -4q242 -37 358 -286q99 -184 99 -452v-18q0 -335 -163 -570q-131 -179 -361 -179t-379 186q-154 248 -156 509q-1 22 -1 44zM230 1528l131 304h338l-151 -304h-318zM333 771q-2 -252 91 -412q74 -112 169 -124 q116 6 196 159q58 102 73 300q3 252 -89 413q-75 112 -166 125q-120 -6 -200 -157q-57 -106 -74 -304zM509 1832h336l131 -304h-318z"/>
<glyph unicode="õ" d="M129 0v1464h768v-1464h-768zM256 104h512v1258h-512v-1258z"/>
<glyph unicode="ö" horiz-adv-x="1185" d="M67 718q0 353 157 584q105 126 219 161q79 25 136 25t91 -4q242 -37 358 -286q99 -184 99 -452v-18q0 -335 -163 -570q-131 -179 -361 -179t-379 186q-154 248 -156 509q-1 22 -1 44zM308.5 1627.5q-22.5 53.5 0 107t73.5 73.5q25 10 50 10q86 0 122 -84q23 -53 0 -106.5 t-74 -75t-100 0t-71.5 75zM333 771q-2 -252 91 -412q74 -112 169 -124q116 6 196 159q58 102 73 300q3 252 -89 413q-75 112 -166 125q-120 -6 -200 -157q-57 -106 -74 -304zM643 1627.5q-23 53.5 0 106.5q36 84 123 84t123 -84q23 -53 0 -106.5t-74.5 -75t-100 0t-71.5 75z "/>
<glyph unicode="ø" d="M129 0v1464h768v-1464h-768zM256 104h512v1258h-512v-1258z"/>
<glyph unicode="ù" horiz-adv-x="1178" d="M92 416v1059h287l1 -998q19 -191 215 -213q193 21 217 210v1001h285v-1075q-37 -198 -186 -308q-133 -93 -272 -98q-21 -2 -43 -2q-206 0 -341 120q-154 149 -163 304zM332 1832h358l135 -304h-328z"/>
<glyph unicode="ú" d="M129 0v1464h768v-1464h-768zM256 104h512v1258h-512v-1258z"/>
<glyph unicode="û" horiz-adv-x="1179" d="M95 411v1057h287l1 -996q19 -191 214 -213q193 21 216 210v999h285v-1073q-37 -197 -186 -307q-132 -93 -271 -98q-21 -2 -43 -2q-206 0 -341 119q-153 150 -162 304zM223 1528l131 304h338l-151 -304h-318zM502 1832h336l131 -304h-318z"/>
<glyph unicode="ü" horiz-adv-x="1200" d="M92 414v1057h286l1 -996q19 -190 214 -212q193 21 217 210v998h284v-1073q-37 -196 -186 -306q-132 -93 -271 -98q-21 -2 -42 -2q-206 0 -341 119q-153 149 -162 303zM301.5 1627.5q-22.5 53.5 0 107t73.5 73.5q25 10 50 10q86 0 122 -84q23 -53 0 -106.5t-74 -75t-100 0 t-71.5 75zM636 1627.5q-23 53.5 0 106.5q36 84 123 84t123 -84q23 -53 0 -106.5t-74.5 -75t-100 0t-71.5 75z"/>
<glyph unicode="þ" d="M129 0v1464h768v-1464h-768zM256 104h512v1258h-512v-1258z"/>
<glyph unicode="Œ" horiz-adv-x="1851" d="M60 718q0 353 157 584q105 126 219 161q79 25 136 25t91 -4q242 -37 358 -286q99 -184 99 -452v-18q0 -335 -163 -570q-131 -179 -361 -179t-379 186q-154 248 -156 509q-1 22 -1 44zM326 771q-2 -252 91 -412q74 -112 169 -124q116 6 196 159q58 102 73 300 q3 252 -89 413q-75 112 -166 125q-120 -6 -200 -157q-57 -106 -74 -304zM889 0v366l109 371l-108 362v366h887v-268h-606v-320h444v-271h-444v-335h632v-271h-914z"/>
<glyph unicode="œ" horiz-adv-x="1851" d="M60 718q0 353 157 584q105 126 219 161q79 25 136 25t91 -4q242 -37 358 -286q99 -184 99 -452v-18q0 -335 -163 -570q-131 -179 -361 -179t-379 186q-154 248 -156 509q-1 22 -1 44zM326 771q-2 -252 91 -412q74 -112 169 -124q116 6 196 159q58 102 73 300 q3 252 -89 413q-75 112 -166 125q-120 -6 -200 -157q-57 -106 -74 -304zM889 0v366l109 371l-108 362v366h887v-268h-606v-320h444v-271h-444v-335h632v-271h-914z"/>
<glyph unicode=" " horiz-adv-x="919"/>
<glyph unicode=" " horiz-adv-x="1838"/>
<glyph unicode=" " horiz-adv-x="919"/>
<glyph unicode=" " horiz-adv-x="1838"/>
<glyph unicode=" " horiz-adv-x="612"/>
<glyph unicode=" " horiz-adv-x="459"/>
<glyph unicode=" " horiz-adv-x="306"/>
<glyph unicode=" " horiz-adv-x="306"/>
<glyph unicode=" " horiz-adv-x="229"/>
<glyph unicode=" " horiz-adv-x="367"/>
<glyph unicode=" " horiz-adv-x="102"/>
<glyph unicode="‐" horiz-adv-x="683" d="M62 534v278h528v-278h-528z"/>
<glyph unicode="‑" horiz-adv-x="683" d="M62 534v278h528v-278h-528z"/>
<glyph unicode="‒" horiz-adv-x="683" d="M62 534v278h528v-278h-528z"/>
<glyph unicode="–" horiz-adv-x="1179" d="M62 534v278h1024v-278h-1024z"/>
<glyph unicode="—" horiz-adv-x="2203" d="M62 534v278h2048v-278h-2048z"/>
<glyph unicode=" " horiz-adv-x="367"/>
<glyph unicode=" " horiz-adv-x="459"/>
<glyph unicode="€" horiz-adv-x="1336" d="M31 534l55 150l788 3l-66 -153h-777zM70 797l55 151l787 3l-65 -154h-777zM288 728q2 340 150 555q87 121 185.5 160.5t198.5 39.5q33 0 68 -4q288 -49 376 -342l9 -49l-250 -52q-31 126 -105 170.5t-187 -5.5q-67 -62 -111 -160t-58 -265q-6 -178 46.5 -313.5 t134.5 -182.5t160 -17q78 20 124 171l250 -77q-51 -199 -195 -288q-105 -68 -249 -76q-270 15 -403 230q-141 233 -144 505z"/>
<glyph unicode="" horiz-adv-x="1465" d="M0 0v1465h1465v-1465h-1465z"/>
</font>
</defs>
</svg>
